{"title":"Transporter.3.(Hindi.Dubbed)DVDRip.aaaevilacharya","uid":5826281,"size":794937086,"categoryP":"video","categoryS":"movies","magnet":"?xt=urn:btih:c66334da914f5e1078e4ca70daefaade8f85048d&amp;dn=Transporter.3.%28Hindi.Dubbed%29DVDRip.aaaevilacharya&amp;tr=udp%3A%2F%2Ftracker.openbittorrent.com%3A80&amp;tr=udp%3A%2F%2Fopen.demonii.com%3A1337&amp;tr=udp%3A%2F%2Ftracker.coppersurfer.tk%3A6969&amp;tr=udp%3A%2F%2Fexodus.desync.com%3A6969","seeders":0,"leechers":0,"uploader":"achaevil","files":1,"time":1284250590,"description":"General\nComplete name : Transporter.3.(Hindi.Dubbed)DVDRip.\nFormat : AVI\nFormat/Info : Audio Video Interleave\nFile size : 758 MiB\nDuration : 1h 43mn\nOverall bit rate : 1 019 Kbps\nWriting library : MPlayer\n\nVideo\nID : 0\nFormat : MPEG-4 Visual\nFormat profile : Simple@L1\nFormat settings, BVOP : No\nFormat settings, QPel : No\nFormat settings, GMC : No warppoints\nFormat settings, Matrix : Default (H.263)\nCodec ID : DX50\nCodec ID/Hint : DivX 5\nDuration : 1h 43mn\nBit rate : 895 Kbps\nWidth : 650 pixels\nHeight : 302 pixels\nDisplay aspect ratio : 2.2:1\nFrame rate : 25.000 fps\nColor space : YUV\nChroma subsampling : 4:2:0\nBit depth : 8 bits\nScan type : Interlaced\nScan order : Top Field First\nBits/(Pixel*Frame) : 0.182\nStream size : 666 MiB (88%)\nWriting library : Lavc52.30.1\n\nAudio :HINDI\nID : 1\nFormat : MPEG Audio\nFormat version : Version 1\nFormat profile : Layer 3\nMode : Joint stereo\nMode extension : MS Stereo\nCodec ID : 55\nCodec ID/Hint : MP3\nDuration : 1h 43mn\nBit rate mode : Constant\nBit rate : 112 Kbps\nChannel(s) : 2 channels\nSampling rate : 44.1 KHz\nStream size : 83.3 MiB (11%)\nAlignment : Aligned on interleaves\nInterleave, duration : 26 ms (0.65 video frame)\nInterleave, preload duration : 809 ms\nWriting library : LAME3.98.2\n\nIMDb&gt;&gt;&gt;&gt;&gt;http://www.imdb.com/title/tt1129442/","torrent":{"xt":"urn:btih:c66334da914f5e1078e4ca70daefaade8f85048d","amp;dn":"Transporter.3.%28Hindi.Dubbed%29DVDRip.aaaevilacharya","amp;tr":["udp%3A%2F%2Ftracker.openbittorrent.com%3A80","udp%3A%2F%2Fopen.demonii.com%3A1337","udp%3A%2F%2Ftracker.coppersurfer.tk%3A6969","udp%3A%2F%2Fexodus.desync.com%3A6969"],"infoHash":"c66334da914f5e1078e4ca70daefaade8f85048d","infoHashBuffer":{"type":"Buffer","data":[198,99,52,218,145,79,94,16,120,228,202,112,218,239,170,222,143,133,4,141]},"announce":[],"urlList":[]}}